<svg width="428" height="62" fill="none" xmlns="http://www.w3.org/2000/svg"><path d="M103.544 39.498c.293.026.678.053 1.156.08h1.953c3.375 0 5.886-.85 7.533-2.551 1.674-1.728 2.511-4.132 2.511-7.215 0-3.135-.81-5.54-2.431-7.214-1.621-1.674-4.132-2.51-7.533-2.51-1.488 0-2.551.04-3.189.119v19.29zm18.414-9.686c0 2.392-.372 4.478-1.116 6.258-.744 1.754-1.806 3.228-3.188 4.424-1.355 1.17-3.003 2.046-4.942 2.63-1.914.559-4.039.838-6.378.838-1.116 0-2.378-.053-3.786-.16a24.1 24.1 0 01-4.026-.558V16.42a24.194 24.194 0 014.066-.558c1.435-.08 2.71-.12 3.826-.12 2.312 0 4.424.28 6.337.838 1.914.531 3.548 1.382 4.903 2.55 1.382 1.143 2.444 2.605 3.188 4.385.744 1.754 1.116 3.853 1.116 6.297zm7.079-13.79h5.022v27.62h-5.022v-27.62zm26.145 3.786c-2.843 0-5.022.89-6.536 2.67-1.488 1.754-2.232 4.199-2.232 7.334 0 1.488.173 2.857.518 4.106.372 1.222.903 2.272 1.594 3.148a7.738 7.738 0 002.631 2.073c1.063.478 2.298.717 3.707.717.876 0 1.634-.026 2.271-.08.638-.079 1.143-.172 1.515-.278v-9.925h5.022v13.273c-.691.265-1.86.558-3.507.877-1.648.318-3.548.478-5.7.478-1.993 0-3.813-.319-5.46-.957-1.648-.637-3.056-1.567-4.225-2.79-1.143-1.222-2.033-2.723-2.671-4.504-.637-1.78-.956-3.826-.956-6.138 0-2.311.345-4.357 1.036-6.138.717-1.78 1.687-3.281 2.91-4.503a12.024 12.024 0 014.304-2.83c1.648-.638 3.401-.957 5.261-.957 1.276 0 2.405.093 3.388.28 1.01.159 1.873.345 2.591.557.717.213 1.302.439 1.754.678.478.239.81.412.996.518l-1.515 4.105c-.797-.478-1.793-.877-2.989-1.196a13.019 13.019 0 00-3.707-.518zm15.888-3.786h5.022v27.62h-5.022v-27.62zm32.483 0v4.344h-8.489v23.277h-5.062V20.366h-8.49v-4.344h22.041zm21.502 27.62c-.372-1.089-.757-2.165-1.156-3.228a92.745 92.745 0 01-1.156-3.268h-11.638a119.477 119.477 0 01-1.156 3.308l-1.116 3.189h-5.221a433.031 433.031 0 015.659-15.265A278.496 278.496 0 01211.942 22c.877-2.019 1.78-4.012 2.71-5.978h4.743a195.668 195.668 0 015.341 12.356 272.2 272.2 0 012.75 7.094 311.09 311.09 0 012.989 8.17h-5.42zm-8.131-22.28a169.989 169.989 0 00-2.112 5.142 365.55 365.55 0 00-2.432 6.577h9.088a272.497 272.497 0 00-2.471-6.617 159.635 159.635 0 00-2.073-5.101zm36.094 17.936v4.345h-17.457V16.022h5.022v23.276h12.435zm24.137-23.555c4.012 0 7.081.73 9.207 2.192 2.152 1.461 3.228 3.747 3.228 6.855 0 1.621-.292 3.016-.876 4.185-.558 1.143-1.382 2.086-2.472 2.83-1.089.718-2.418 1.25-3.985 1.595-1.568.345-3.362.518-5.381.518h-2.511v9.725h-5.022V16.42c1.169-.265 2.458-.438 3.866-.518a53.74 53.74 0 013.946-.16zm.359 4.344c-1.276 0-2.325.04-3.149.12v9.406h2.431c2.418 0 4.278-.332 5.58-.996 1.302-.691 1.953-1.98 1.953-3.866 0-.904-.172-1.661-.518-2.272a3.721 3.721 0 00-1.435-1.435c-.611-.346-1.342-.585-2.192-.718-.824-.159-1.714-.239-2.67-.239zm35.714 19.211v4.345H295.77V16.022h5.022v23.276h12.436zm24.774 4.345c-.372-1.09-.758-2.166-1.156-3.229a92.745 92.745 0 01-1.156-3.268h-11.638a122.862 122.862 0 01-1.156 3.308l-1.116 3.189h-5.222c1.037-2.95 2.02-5.673 2.95-8.17.93-2.499 1.833-4.863 2.71-7.095A278.496 278.496 0 01324.889 22c.876-2.019 1.78-4.012 2.71-5.978h4.743a195.668 195.668 0 015.341 12.356 272.2 272.2 0 012.75 7.094 314.739 314.739 0 012.989 8.17h-5.42zm-8.131-22.28a169.714 169.714 0 00-2.113 5.141c-.77 2.02-1.581 4.212-2.431 6.577h9.087c-.85-2.365-1.674-4.57-2.471-6.617a159.922 159.922 0 00-2.072-5.101zm37.25 22.28a159.629 159.629 0 00-3.029-4.863 198.327 198.327 0 00-3.468-5.26 109.812 109.812 0 00-3.667-5.142 84.337 84.337 0 00-3.507-4.504v19.769h-4.942V16.022h4.105c1.063 1.116 2.205 2.444 3.428 3.986a148.713 148.713 0 013.667 4.743 124.702 124.702 0 013.587 4.982 101.999 101.999 0 013.109 4.623V16.022h4.982v27.62h-4.265zm12.485 0V16.022h17.736v4.265h-12.714v6.815h11.319v4.185h-11.319v8.091h13.671v4.265h-18.693zm44.199-27.621v4.344h-8.49v23.277h-5.062V20.366h-8.489v-4.344h22.041z" fill="#fff"/><g clip-path="url(#clip0)" fill="#fff"><path d="M12.116 33.145a2.81 2.81 0 100-5.62 2.81 2.81 0 000 5.62zM49.008 33.145a2.81 2.81 0 100-5.62 2.81 2.81 0 000 5.62z"/><path d="M30.998 0A30.94 30.94 0 006.041 12.418h8.793a19.186 19.186 0 009.064-2.447 6.345 6.345 0 012.84-.725 6.466 6.466 0 016.496 6.314 6.406 6.406 0 01-9.487 5.59 23.537 23.537 0 00-11.089-3.021H9.637a21.3 21.3 0 00-7.403 1.39 31 31 0 000 22.962c1.37.371 2.781.564 4.2.575h7.433a19.187 19.187 0 009.064-2.448 6.344 6.344 0 012.84-.725 6.466 6.466 0 016.527 6.285 6.405 6.405 0 01-9.397 5.74 23.537 23.537 0 00-11.089-3.021H8.791c-.92.005-1.84.076-2.75.212A31 31 0 1030.998 0zm18.13 38.04a7.493 7.493 0 01-3.566-.906 27.708 27.708 0 00-13.053-3.626h-3.565a27.708 27.708 0 00-13.053 3.626 7.524 7.524 0 01-11.088-6.768 7.614 7.614 0 017.704-7.373c1.161.03 2.3.33 3.324.876a22.57 22.57 0 0010.545 3.022h8.762a22.57 22.57 0 0010.545-3.022 7.463 7.463 0 013.323-.876 7.614 7.614 0 017.705 7.403 7.524 7.524 0 01-7.523 7.644h-.06z"/><path d="M25.652 48.555a2.387 2.387 0 100-4.774 2.387 2.387 0 000 4.774zM26.589 17.887a2.387 2.387 0 100-4.774 2.387 2.387 0 000 4.774z"/></g><defs><clipPath id="clip0"><path fill="#fff" d="M0 0h62v62H0z"/></clipPath></defs></svg>