<svg width="7" height="7" viewBox="0 0 7 7" fill="none" xmlns="http://www.w3.org/2000/svg">
<path d="M6.95291 3.528C6.95291 3.992 6.87291 4.432 6.71291 4.848C6.55291 5.248 6.32091 5.608 6.01691 5.928C5.71291 6.232 5.34491 6.48 4.91291 6.672C4.49691 6.848 4.02491 6.936 3.49691 6.936C2.96891 6.936 2.48891 6.848 2.05691 6.672C1.64091 6.48 1.28091 6.232 0.976906 5.928C0.672906 5.608 0.440906 5.248 0.280906 4.848C0.120906 4.432 0.0409062 3.992 0.0409062 3.528C0.0409062 3.08 0.120906 2.648 0.280906 2.232C0.440906 1.816 0.672906 1.456 0.976906 1.152C1.28091 0.831999 1.64091 0.583999 2.05691 0.408C2.48891 0.215999 2.96891 0.119999 3.49691 0.119999C4.02491 0.119999 4.49691 0.215999 4.91291 0.408C5.34491 0.583999 5.71291 0.831999 6.01691 1.152C6.32091 1.456 6.55291 1.816 6.71291 2.232C6.87291 2.648 6.95291 3.08 6.95291 3.528Z" fill="#0dd1a2"/>
</svg>
