<svg>
  <symbol id="page-logo" viewBox="0 0 428 62" fill="none" xmlns="http://www.w3.org/2000/svg">
    <path d="M103.544 39.4977C103.837 39.5243 104.222 39.5509 104.7 39.5774C105.179 39.5774 105.83 39.5774 106.653 39.5774C110.028 39.5774 112.539 38.7271 114.186 37.0266C115.86 35.2994 116.697 32.8947 116.697 29.8124C116.697 26.677 115.887 24.2723 114.266 22.5983C112.645 20.9243 110.134 20.0873 106.733 20.0873C105.245 20.0873 104.182 20.1271 103.544 20.2069V39.4977ZM121.958 29.8124C121.958 32.2039 121.586 34.2897 120.842 36.07C120.098 37.8237 119.036 39.2984 117.654 40.4941C116.299 41.6633 114.651 42.5401 112.712 43.1247C110.798 43.6827 108.673 43.9617 106.334 43.9617C105.218 43.9617 103.956 43.9086 102.548 43.8023C101.14 43.7226 99.7979 43.5366 98.5224 43.2443V16.4204C99.7979 16.1281 101.153 15.9421 102.588 15.8624C104.023 15.7827 105.298 15.7429 106.414 15.7429C108.726 15.7429 110.838 16.0219 112.751 16.5799C114.665 17.1113 116.299 17.9616 117.654 19.1307C119.036 20.2733 120.098 21.7347 120.842 23.515C121.586 25.2687 121.958 27.3679 121.958 29.8124ZM129.037 16.0219H134.059V43.6429H129.037V16.0219ZM155.182 19.8083C152.339 19.8083 150.16 20.6984 148.646 22.4787C147.158 24.2324 146.414 26.677 146.414 29.8124C146.414 31.3004 146.587 32.6689 146.932 33.9177C147.304 35.14 147.835 36.1896 148.526 37.0664C149.244 37.9433 150.121 38.6341 151.157 39.139C152.22 39.6173 153.455 39.8564 154.864 39.8564C155.74 39.8564 156.498 39.8299 157.135 39.7767C157.773 39.697 158.278 39.604 158.65 39.4977V29.5733H163.672V42.8457C162.981 43.1114 161.812 43.4037 160.165 43.7226C158.517 44.0414 156.617 44.2009 154.465 44.2009C152.472 44.2009 150.652 43.882 149.005 43.2443C147.357 42.6066 145.949 41.6766 144.78 40.4543C143.637 39.232 142.747 37.7307 142.109 35.9504C141.472 34.1701 141.153 32.1241 141.153 29.8124C141.153 27.5007 141.498 25.4547 142.189 23.6744C142.906 21.8941 143.876 20.3929 145.099 19.1706C146.321 17.9217 147.756 16.9784 149.403 16.3407C151.051 15.703 152.804 15.3841 154.664 15.3841C155.94 15.3841 157.069 15.4771 158.052 15.6631C159.062 15.8226 159.925 16.0086 160.643 16.2211C161.36 16.4337 161.945 16.6596 162.397 16.8987C162.875 17.1379 163.207 17.3106 163.393 17.4169L161.878 21.5221C161.081 21.0439 160.085 20.6453 158.889 20.3264C157.72 19.981 156.484 19.8083 155.182 19.8083ZM171.07 16.0219H176.092V43.6429H171.07V16.0219ZM203.553 16.0219V20.3663H195.064V43.6429H190.002V20.3663H181.512V16.0219H203.553ZM225.055 43.6429C224.683 42.5534 224.298 41.4773 223.899 40.4144C223.5 39.3516 223.115 38.2621 222.743 37.1461H211.105C210.733 38.2621 210.348 39.3649 209.949 40.4543C209.577 41.5171 209.205 42.58 208.833 43.6429H203.612C204.648 40.6934 205.631 37.9699 206.561 35.4721C207.491 32.9744 208.395 30.6096 209.271 28.3776C210.175 26.1456 211.065 24.0199 211.942 22.0004C212.819 19.981 213.722 17.9881 214.652 16.0219H219.395C220.325 17.9881 221.229 19.981 222.105 22.0004C222.982 24.0199 223.859 26.1456 224.736 28.3776C225.639 30.6096 226.556 32.9744 227.486 35.4721C228.443 37.9699 229.439 40.6934 230.475 43.6429H225.055ZM216.924 21.3627C216.313 22.771 215.609 24.4849 214.812 26.5043C214.041 28.5237 213.231 30.7159 212.38 33.0807H221.468C220.617 30.7159 219.794 28.5104 218.997 26.4644C218.199 24.4184 217.509 22.7179 216.924 21.3627ZM253.018 39.2984V43.6429H235.561V16.0219H240.583V39.2984H253.018ZM277.155 15.7429C281.167 15.7429 284.236 16.4736 286.362 17.935C288.514 19.3964 289.59 21.6816 289.59 24.7904C289.59 26.4113 289.298 27.8063 288.714 28.9754C288.156 30.118 287.332 31.0613 286.242 31.8053C285.153 32.5227 283.824 33.0541 282.257 33.3996C280.689 33.745 278.895 33.9177 276.876 33.9177H274.365V43.6429H269.343V16.4204C270.512 16.1547 271.801 15.982 273.209 15.9023C274.644 15.796 275.959 15.7429 277.155 15.7429ZM277.514 20.0873C276.238 20.0873 275.189 20.1271 274.365 20.2069V29.6131H276.796C279.214 29.6131 281.074 29.281 282.376 28.6167C283.678 27.9259 284.329 26.6371 284.329 24.7506C284.329 23.8471 284.157 23.0899 283.811 22.4787C283.466 21.8676 282.987 21.3893 282.376 21.0439C281.765 20.6984 281.034 20.4593 280.184 20.3264C279.36 20.167 278.47 20.0873 277.514 20.0873ZM313.228 39.2984V43.6429H295.77V16.0219H300.792V39.2984H313.228ZM338.002 43.6429C337.63 42.5534 337.244 41.4773 336.846 40.4144C336.447 39.3516 336.062 38.2621 335.69 37.1461H324.052C323.68 38.2621 323.294 39.3649 322.896 40.4543C322.524 41.5171 322.152 42.58 321.78 43.6429H316.558C317.595 40.6934 318.578 37.9699 319.508 35.4721C320.438 32.9744 321.341 30.6096 322.218 28.3776C323.122 26.1456 324.012 24.0199 324.889 22.0004C325.765 19.981 326.669 17.9881 327.599 16.0219H332.342C333.272 17.9881 334.175 19.981 335.052 22.0004C335.929 24.0199 336.806 26.1456 337.683 28.3776C338.586 30.6096 339.503 32.9744 340.433 35.4721C341.389 37.9699 342.386 40.6934 343.422 43.6429H338.002ZM329.871 21.3627C329.26 22.771 328.555 24.4849 327.758 26.5043C326.988 28.5237 326.177 30.7159 325.327 33.0807H334.414C333.564 30.7159 332.74 28.5104 331.943 26.4644C331.146 24.4184 330.455 22.7179 329.871 21.3627ZM367.121 43.6429C366.218 42.1283 365.208 40.5074 364.092 38.7803C362.976 37.0266 361.82 35.2729 360.624 33.5191C359.429 31.7389 358.206 30.025 356.957 28.3776C355.735 26.7036 354.566 25.2023 353.45 23.8737V43.6429H348.508V16.0219H352.613C353.676 17.1379 354.818 18.4664 356.041 20.0076C357.263 21.5221 358.485 23.1031 359.708 24.7506C360.956 26.398 362.152 28.0587 363.295 29.7327C364.464 31.3801 365.5 32.9213 366.404 34.3561V16.0219H371.386V43.6429H367.121ZM379.606 43.6429V16.0219H397.342V20.2866H384.628V27.1021H395.947V31.2871H384.628V39.3781H398.299V43.6429H379.606ZM423.805 16.0219V20.3663H415.315V43.6429H410.253V20.3663H401.764V16.0219H423.805Z" fill="white"></path>
    <g clip-path="url(#clip0)">
      <path d="M12.116 33.1452C13.6679 33.1452 14.9259 31.8872 14.9259 30.3353C14.9259 28.7834 13.6679 27.5253 12.116 27.5253C10.5641 27.5253 9.30605 28.7834 9.30605 30.3353C9.30605 31.8872 10.5641 33.1452 12.116 33.1452Z" fill="white"></path>
      <path d="M49.0078 33.1452C50.5597 33.1452 51.8178 31.8872 51.8178 30.3353C51.8178 28.7834 50.5597 27.5253 49.0078 27.5253C47.4559 27.5253 46.1979 28.7834 46.1979 30.3353C46.1979 31.8872 47.4559 33.1452 49.0078 33.1452Z" fill="white"></path>
      <path d="M30.9984 3.5518e-05C26.1569 -0.0271029 21.3767 1.08235 17.0421 3.23915C12.7075 5.39596 8.93952 8.53992 6.04129 12.4182H7.24986H14.8337C18.0112 12.3657 21.1259 11.5247 23.898 9.9708C24.7752 9.51071 25.7478 9.26237 26.7382 9.24565C28.4324 9.23727 30.0622 9.89421 31.2771 11.0752C32.4919 12.2561 33.1947 13.8667 33.2343 15.5605C33.2298 16.6709 32.9368 17.7612 32.3839 18.7242C31.8309 19.6872 31.0372 20.49 30.0804 21.0536C29.1236 21.6173 28.0368 21.9226 26.9264 21.9395C25.8161 21.9565 24.7204 21.6844 23.7469 21.1501C20.3572 19.2422 16.5474 18.2041 12.6582 18.1287H9.6368C7.10632 18.1486 4.59963 18.6192 2.23427 19.5186C-0.705185 26.8907 -0.705185 35.1094 2.23427 42.4815C3.60376 42.8524 5.0153 43.0453 6.43407 43.0556H13.8668C17.0443 43.0031 20.159 42.1621 22.9312 40.6082C23.8083 40.1481 24.781 39.8998 25.7713 39.8831C27.4656 39.8666 29.0988 40.5158 30.3193 41.6911C31.5398 42.8665 32.2502 44.4739 32.2976 46.1677C32.3109 47.2781 32.0354 48.3728 31.4979 49.3446C30.9605 50.3163 30.1797 51.1317 29.232 51.7106C28.2844 52.2895 27.2026 52.6122 26.0926 52.6469C24.9827 52.6815 23.8828 52.4271 22.9009 51.9084C19.5112 50.0005 15.7014 48.9624 11.8122 48.887H8.7908C7.87043 48.8921 6.9516 48.9627 6.04129 49.0985C9.14698 53.4171 13.3117 56.8639 18.1349 59.1074C22.958 61.3509 28.2774 62.3155 33.5812 61.9084C38.885 61.5014 43.9948 59.7364 48.4192 56.7833C52.8435 53.8302 56.4336 49.7883 58.8439 45.0463C61.2543 40.3043 62.4039 35.0219 62.1822 29.7072C61.9605 24.3924 60.3749 19.2241 57.5779 14.6994C54.7809 10.1747 50.8667 6.44579 46.2117 3.87144C41.5568 1.29709 36.3177 -0.0361247 30.9984 3.5518e-05ZM49.1271 38.04C47.8818 38.0388 46.6564 37.7273 45.5618 37.1336C41.5779 34.8636 37.093 33.6178 32.5091 33.5078H28.9438C24.36 33.6178 19.875 34.8636 15.8912 37.1336C14.7343 37.7565 13.4345 38.0655 12.1211 38.03C10.8077 37.9945 9.52648 37.6156 8.40498 36.9311C7.28348 36.2466 6.3608 35.2803 5.72877 34.1284C5.09673 32.9765 4.77738 31.6792 4.8025 30.3655C4.86564 28.3726 5.70806 26.4839 7.14874 25.1054C8.58941 23.7269 10.5134 22.9685 12.5072 22.9932C13.6681 23.0227 14.8062 23.3227 15.8308 23.8694C19.0438 25.7284 22.6657 26.7662 26.3756 26.8909H35.1378C38.8477 26.7662 42.4696 25.7284 45.6826 23.8694C46.7072 23.3227 47.8452 23.0227 49.0062 22.9932C51.0051 22.9686 52.9335 23.7312 54.375 25.1162C55.8165 26.5011 56.6555 28.3975 56.7109 30.3957C56.7269 31.3939 56.5442 32.3852 56.1733 33.312C55.8024 34.2387 55.2507 35.0824 54.5505 35.7939C53.8503 36.5054 53.0155 37.0704 52.0948 37.456C51.174 37.8416 50.1857 38.0401 49.1875 38.04H49.1271Z" fill="white"></path>
      <path d="M25.652 48.5546C26.9703 48.5546 28.039 47.4859 28.039 46.1676C28.039 44.8494 26.9703 43.7807 25.652 43.7807C24.3338 43.7807 23.2651 44.8494 23.2651 46.1676C23.2651 47.4859 24.3338 48.5546 25.652 48.5546Z" fill="white"></path>
      <path d="M26.5887 17.8869C27.907 17.8869 28.9756 16.8183 28.9756 15.5C28.9756 14.1817 27.907 13.1131 26.5887 13.1131C25.2704 13.1131 24.2018 14.1817 24.2018 15.5C24.2018 16.8183 25.2704 17.8869 26.5887 17.8869Z" fill="white"></path>
    </g>
    <defs>
      <clipPath>
        <rect width="62" height="62" fill="white"></rect>
      </clipPath>
    </defs>
  </symbol>

  <symbol id="social-facebook" viewBox="0 0 11 22" fill="none" xmlns="http://www.w3.org/2000/svg">
      <path d="M0.351225 11.7172H2.73822V21.6452C2.73822 21.8412 2.89542 22 3.08944 22H7.13667C7.33069 22 7.4879 21.8412 7.4879 21.6452V11.764H10.2319C10.4104 11.764 10.5605 11.6287 10.5808 11.4497L10.9976 7.79467C11.0091 7.69411 10.9775 7.59341 10.9109 7.51797C10.8443 7.44246 10.7489 7.39924 10.6488 7.39924H7.48804V5.10812C7.48804 4.41746 7.85612 4.06723 8.58217 4.06723C8.68564 4.06723 10.6488 4.06723 10.6488 4.06723C10.8428 4.06723 11 3.90834 11 3.71239V0.357465C11 0.161452 10.8428 0.00262581 10.6488 0.00262581H7.8007C7.78061 0.00163226 7.736 0 7.67025 0C7.17608 0 5.45838 0.0980064 4.10153 1.3591C2.59815 2.7566 2.80713 4.42988 2.85707 4.71999V7.39917H0.351225C0.157208 7.39917 2.05796e-07 7.55799 2.05796e-07 7.75401V11.3623C2.05796e-07 11.5583 0.157208 11.7172 0.351225 11.7172Z" fill="white"/>
  </symbol>

  <symbol id="social-vk" viewBox="0 0 28 15" fill="none" xmlns="http://www.w3.org/2000/svg">
    <path fill-rule="evenodd" clip-rule="evenodd" d="M24.098 9.53768C25.0268 10.3961 26.0071 11.2038 26.8401 12.1488C27.2081 12.5687 27.5565 13.002 27.823 13.4894C28.2007 14.1822 27.8586 14.9445 27.2024 14.9859L23.1233 14.9842C22.0712 15.0668 21.2319 14.6658 20.5262 13.9849C19.9615 13.4403 19.4385 12.8608 18.8954 12.2978C18.6728 12.0678 18.4398 11.8513 18.1614 11.6801C17.6045 11.338 17.1212 11.4427 16.803 11.9925C16.4789 12.5517 16.4053 13.1709 16.3735 13.7941C16.3298 14.7034 16.0395 14.9424 15.0746 14.9841C13.0126 15.0761 11.0557 14.7808 9.23773 13.7961C7.63497 12.928 6.3921 11.7025 5.31032 10.3151C3.20406 7.61357 1.59109 4.645 0.141409 1.59327C-0.184901 0.905713 0.053737 0.536635 0.855117 0.523572C2.18584 0.4991 3.51639 0.500842 4.84868 0.521831C5.38952 0.52932 5.74757 0.82298 5.95641 1.30667C6.67637 2.9825 7.55733 4.5769 8.66312 6.05478C8.9576 6.44824 9.25788 6.84171 9.68548 7.11865C10.1585 7.42528 10.5187 7.32365 10.7412 6.82481C10.8824 6.50851 10.9443 6.16782 10.9761 5.82905C11.0815 4.66355 11.0954 3.50006 10.9105 2.33866C10.797 1.61382 10.3657 1.1446 9.60167 1.00743C9.21179 0.9375 9.26984 0.800163 9.45861 0.589498C9.78649 0.226167 10.0949 0 10.7096 0H15.3196C16.0454 0.135596 16.2065 0.444235 16.3059 1.13554L16.3099 5.98311C16.3019 6.25073 16.4511 7.04488 16.9603 7.22202C17.3678 7.34812 17.6364 7.03948 17.881 6.79485C18.9847 5.68588 19.7725 4.37529 20.4763 3.0182C20.7886 2.42148 21.0571 1.80176 21.3174 1.18257C21.5102 0.72309 21.8128 0.49701 22.3595 0.507025L26.7964 0.51077C26.928 0.51077 27.0611 0.512599 27.1885 0.533239C27.9362 0.653855 28.141 0.958315 27.9101 1.64944C27.5463 2.73377 26.8384 3.6374 26.1462 4.5452C25.4063 5.5144 24.6149 6.45042 23.8812 7.42537C23.207 8.31567 23.2605 8.76443 24.098 9.53768Z" fill="white"/>
  </symbol>
</svg>
